<svg width="118" height="118" viewBox="0 0 118 118" fill="none" xmlns="http://www.w3.org/2000/svg">
<g clip-path="url(#clip0)">
<path d="M115.569 30.6739C114.208 25.6189 110.223 21.6343 105.169 20.2731C95.9349 17.7461 58.9989 17.7461 58.9989 17.7461C58.9989 17.7461 22.0637 17.7461 12.8297 20.1768C7.87282 21.5371 3.79011 25.6198 2.42981 30.6739C0 39.907 0 59.0556 0 59.0556C0 59.0556 0 78.3006 2.42981 87.4374C3.79101 92.4915 7.77559 96.477 12.8306 97.8382C22.1609 100.365 58.9998 100.365 58.9998 100.365C58.9998 100.365 95.9349 100.365 105.169 97.9345C110.224 96.5742 114.208 92.5887 115.57 87.5346C118 78.3006 118 59.1529 118 59.1529C118 59.1529 118.097 39.907 115.569 30.6739Z" fill="#DB0000"/>
<path d="M47.2386 76.7468L77.9531 59.0565L47.2386 41.3662V76.7468Z" fill="white"/>
</g>
<defs>
<clipPath id="clip0">
<rect width="118" height="118" fill="white"/>
</clipPath>
</defs>
</svg>
