<svg width="699" height="768" viewBox="0 0 699 768" fill="none" xmlns="http://www.w3.org/2000/svg">
<g opacity="0.17">
<path opacity="0.2" d="M40.8433 215.379C32.7653 215.379 24.8687 217.775 18.1521 222.263C11.4354 226.75 6.20042 233.13 3.10909 240.593C0.0177545 248.056 -0.791157 256.268 0.784791 264.191C2.36074 272.113 6.25082 279.391 11.9629 285.103C17.6749 290.815 24.9525 294.705 32.8753 296.281C40.7981 297.857 49.0102 297.048 56.4734 293.957C63.9365 290.865 70.3154 285.631 74.8033 278.914C79.2913 272.197 81.6867 264.301 81.6867 256.223C81.6867 245.39 77.3836 235.002 69.724 227.342C62.0643 219.682 51.6757 215.379 40.8433 215.379Z" fill="white" fill-opacity="0.3"/>
<path opacity="0.2" d="M40.8433 315.245C32.7653 315.245 24.8687 317.64 18.1521 322.128C11.4354 326.616 6.20042 332.995 3.10909 340.458C0.0177545 347.922 -0.791157 356.134 0.784791 364.057C2.36074 371.979 6.25082 379.257 11.9629 384.969C17.6749 390.681 24.9525 394.571 32.8753 396.147C40.7981 397.723 49.0102 396.914 56.4734 393.823C63.9365 390.731 70.3154 385.496 74.8033 378.78C79.2913 372.063 81.6867 364.166 81.6867 356.088C81.6867 345.256 77.3836 334.867 69.724 327.208C62.0643 319.548 51.6757 315.245 40.8433 315.245Z" fill="white" fill-opacity="0.3"/>
<path opacity="0.2" d="M140.708 15.7593C132.63 15.7593 124.733 18.1548 118.016 22.6427C111.3 27.1307 106.065 33.5094 102.973 40.9726C99.8821 48.4357 99.0734 56.648 100.649 64.5708C102.225 72.4936 106.115 79.7712 111.827 85.4832C117.539 91.1953 124.817 95.0854 132.74 96.6613C140.663 98.2373 148.875 97.4284 156.338 94.337C163.801 91.2457 170.18 86.0107 174.668 79.294C179.156 72.5774 181.551 64.6807 181.551 56.6026C181.551 45.7703 177.248 35.3816 169.589 27.722C161.929 20.0624 151.54 15.7593 140.708 15.7593Z" fill="white" fill-opacity="0.3"/>
<path opacity="0.2" d="M140.708 215.379C132.63 215.379 124.733 217.775 118.016 222.263C111.3 226.75 106.065 233.13 102.973 240.593C99.8821 248.056 99.0734 256.268 100.649 264.191C102.225 272.113 106.115 279.391 111.827 285.103C117.539 290.815 124.817 294.705 132.74 296.281C140.663 297.857 148.875 297.048 156.338 293.957C163.801 290.865 170.18 285.631 174.668 278.914C179.156 272.197 181.551 264.301 181.551 256.223C181.551 245.39 177.248 235.002 169.589 227.342C161.929 219.682 151.54 215.379 140.708 215.379Z" fill="white" fill-opacity="0.3"/>
<path opacity="0.5" d="M140.708 415.005C132.63 415.005 124.733 417.4 118.016 421.888C111.3 426.376 106.065 432.755 102.973 440.218C99.8821 447.681 99.0734 455.894 100.649 463.816C102.225 471.739 106.115 479.017 111.827 484.729C117.539 490.441 124.817 494.331 132.74 495.907C140.663 497.483 148.875 496.674 156.338 493.583C163.801 490.491 170.18 485.256 174.668 478.54C179.156 471.823 181.551 463.926 181.551 455.848C181.551 445.016 177.248 434.627 169.589 426.968C161.929 419.308 151.54 415.005 140.708 415.005Z" fill="white" fill-opacity="0.3"/>
<path opacity="0.7" d="M140.708 614.625C132.63 614.625 124.733 617.02 118.016 621.508C111.3 625.996 106.065 632.375 102.973 639.838C99.8821 647.301 99.0734 655.513 100.649 663.436C102.225 671.359 106.115 678.636 111.827 684.348C117.539 690.06 124.817 693.951 132.74 695.526C140.663 697.102 148.875 696.294 156.338 693.202C163.801 690.111 170.18 684.876 174.668 678.159C179.156 671.443 181.551 663.546 181.551 655.468C181.551 644.635 177.248 634.247 169.589 626.587C161.929 618.928 151.54 614.625 140.708 614.625Z" fill="white" fill-opacity="0.3"/>
<path opacity="0.2" d="M140.708 714.49C132.63 714.49 124.733 716.885 118.016 721.373C111.3 725.861 106.065 732.24 102.973 739.703C99.8821 747.166 99.0734 755.378 100.649 763.301C102.225 771.224 106.115 778.502 111.827 784.214C117.539 789.926 124.817 793.816 132.74 795.392C140.663 796.968 148.875 796.159 156.338 793.067C163.801 789.976 170.18 784.741 174.668 778.024C179.156 771.308 181.551 763.411 181.551 755.333C181.551 744.501 177.248 734.112 169.589 726.453C161.929 718.793 151.54 714.49 140.708 714.49Z" fill="white" fill-opacity="0.3"/>
<path opacity="0.7" d="M240.464 115.62C232.386 115.62 224.489 118.015 217.772 122.503C211.056 126.991 205.821 133.37 202.729 140.833C199.638 148.296 198.829 156.508 200.405 164.431C201.981 172.354 205.871 179.632 211.583 185.344C217.295 191.056 224.573 194.946 232.495 196.522C240.418 198.098 248.631 197.289 256.094 194.197C263.557 191.106 269.936 185.871 274.423 179.154C278.911 172.438 281.307 164.541 281.307 156.463C281.307 145.631 277.004 135.242 269.344 127.582C261.684 119.923 251.296 115.62 240.464 115.62Z" fill="white" fill-opacity="0.3"/>
<path opacity="0.4" d="M240.464 215.379C232.386 215.379 224.489 217.775 217.772 222.263C211.056 226.75 205.821 233.13 202.729 240.593C199.638 248.056 198.829 256.268 200.405 264.191C201.981 272.113 205.871 279.391 211.583 285.103C217.295 290.815 224.573 294.705 232.495 296.281C240.418 297.857 248.631 297.048 256.094 293.957C263.557 290.865 269.936 285.631 274.423 278.914C278.911 272.197 281.307 264.301 281.307 256.223C281.307 245.39 277.004 235.002 269.344 227.342C261.684 219.682 251.296 215.379 240.464 215.379Z" fill="white" fill-opacity="0.3"/>
<path opacity="0.7" d="M240.464 415.005C232.386 415.005 224.489 417.4 217.772 421.888C211.056 426.376 205.821 432.755 202.729 440.218C199.638 447.681 198.829 455.894 200.405 463.816C201.981 471.739 205.871 479.017 211.583 484.729C217.295 490.441 224.573 494.331 232.495 495.907C240.418 497.483 248.631 496.674 256.094 493.583C263.557 490.491 269.936 485.256 274.423 478.54C278.911 471.823 281.307 463.926 281.307 455.848C281.307 445.016 277.004 434.627 269.344 426.968C261.684 419.308 251.296 415.005 240.464 415.005Z" fill="white" fill-opacity="0.3"/>
<path opacity="0.5" d="M240.464 514.864C232.386 514.864 224.489 517.26 217.772 521.748C211.056 526.236 205.821 532.614 202.729 540.078C199.638 547.541 198.829 555.753 200.405 563.676C201.981 571.599 205.871 578.876 211.583 584.588C217.295 590.3 224.573 594.19 232.495 595.766C240.418 597.342 248.631 596.533 256.094 593.442C263.557 590.351 269.936 585.116 274.423 578.399C278.911 571.682 281.307 563.786 281.307 555.708C281.307 544.875 277.004 534.487 269.344 526.827C261.684 519.167 251.296 514.864 240.464 514.864Z" fill="white" fill-opacity="0.3"/>
<path opacity="0.5" d="M340.328 15.7593C332.25 15.7593 324.353 18.1548 317.636 22.6427C310.92 27.1307 305.685 33.5094 302.593 40.9726C299.502 48.4357 298.693 56.648 300.269 64.5708C301.845 72.4936 305.735 79.7712 311.447 85.4832C317.159 91.1953 324.437 95.0854 332.36 96.6613C340.283 98.2373 348.495 97.4284 355.958 94.337C363.421 91.2457 369.8 86.0107 374.288 79.294C378.776 72.5774 381.171 64.6807 381.171 56.6026C381.171 45.7703 376.868 35.3816 369.208 27.722C361.549 20.0624 351.16 15.7593 340.328 15.7593Z" fill="white" fill-opacity="0.3"/>
<path opacity="0.7" d="M340.328 115.62C332.25 115.62 324.353 118.015 317.636 122.503C310.92 126.991 305.685 133.37 302.593 140.833C299.502 148.296 298.693 156.508 300.269 164.431C301.845 172.354 305.735 179.632 311.447 185.344C317.159 191.056 324.437 194.946 332.36 196.522C340.283 198.098 348.495 197.289 355.958 194.197C363.421 191.106 369.8 185.871 374.288 179.154C378.776 172.438 381.171 164.541 381.171 156.463C381.171 145.631 376.868 135.242 369.208 127.582C361.549 119.923 351.16 115.62 340.328 115.62Z" fill="white" fill-opacity="0.3"/>
<path opacity="0.1" d="M340.328 215.379C332.25 215.379 324.353 217.775 317.636 222.263C310.92 226.75 305.685 233.13 302.593 240.593C299.502 248.056 298.693 256.268 300.269 264.191C301.845 272.113 305.735 279.391 311.447 285.103C317.159 290.815 324.437 294.705 332.36 296.281C340.283 297.857 348.495 297.048 355.958 293.957C363.421 290.865 369.8 285.631 374.288 278.914C378.776 272.197 381.171 264.301 381.171 256.223C381.171 245.39 376.868 235.002 369.208 227.342C361.549 219.682 351.16 215.379 340.328 215.379Z" fill="white" fill-opacity="0.3"/>
<path opacity="0.5" d="M340.328 514.864C332.25 514.864 324.353 517.26 317.636 521.748C310.92 526.236 305.685 532.614 302.593 540.078C299.502 547.541 298.693 555.753 300.269 563.676C301.845 571.599 305.735 578.876 311.447 584.588C317.159 590.3 324.437 594.19 332.36 595.766C340.283 597.342 348.495 596.533 355.958 593.442C363.421 590.351 369.8 585.116 374.288 578.399C378.776 571.682 381.171 563.786 381.171 555.708C381.171 544.875 376.868 534.487 369.208 526.827C361.549 519.167 351.16 514.864 340.328 514.864Z" fill="white" fill-opacity="0.3"/>
<path opacity="0.5" d="M440.083 15.7593C432.005 15.7593 424.109 18.1548 417.392 22.6427C410.675 27.1307 405.44 33.5094 402.349 40.9726C399.258 48.4357 398.449 56.648 400.025 64.5708C401.601 72.4936 405.491 79.7712 411.203 85.4832C416.915 91.1953 424.192 95.0854 432.115 96.6613C440.038 98.2373 448.25 97.4284 455.714 94.337C463.177 91.2457 469.555 86.0107 474.043 79.294C478.531 72.5774 480.927 64.6807 480.927 56.6026C480.927 45.7703 476.624 35.3816 468.964 27.722C461.304 20.0624 450.916 15.7593 440.083 15.7593Z" fill="white" fill-opacity="0.3"/>
<path opacity="0.9" d="M440.083 215.379C432.005 215.379 424.109 217.775 417.392 222.263C410.675 226.75 405.44 233.13 402.349 240.593C399.258 248.056 398.449 256.268 400.025 264.191C401.601 272.113 405.491 279.391 411.203 285.103C416.915 290.815 424.192 294.705 432.115 296.281C440.038 297.857 448.25 297.048 455.714 293.957C463.177 290.865 469.555 285.631 474.043 278.914C478.531 272.197 480.927 264.301 480.927 256.223C480.927 245.39 476.624 235.002 468.964 227.342C461.304 219.682 450.916 215.379 440.083 215.379Z" fill="white" fill-opacity="0.3"/>
<path opacity="0.7" d="M440.083 315.245C432.005 315.245 424.109 317.64 417.392 322.128C410.675 326.616 405.44 332.995 402.349 340.458C399.258 347.922 398.449 356.134 400.025 364.057C401.601 371.979 405.491 379.257 411.203 384.969C416.915 390.681 424.192 394.571 432.115 396.147C440.038 397.723 448.25 396.914 455.714 393.823C463.177 390.731 469.555 385.496 474.043 378.78C478.531 372.063 480.927 364.166 480.927 356.088C480.927 345.256 476.624 334.867 468.964 327.208C461.304 319.548 450.916 315.245 440.083 315.245Z" fill="white" fill-opacity="0.3"/>
<path opacity="0.5" d="M440.083 514.864C432.005 514.864 424.109 517.26 417.392 521.748C410.675 526.236 405.44 532.614 402.349 540.078C399.258 547.541 398.449 555.753 400.025 563.676C401.601 571.599 405.491 578.876 411.203 584.588C416.915 590.3 424.192 594.19 432.115 595.766C440.038 597.342 448.25 596.533 455.714 593.442C463.177 590.351 469.555 585.116 474.043 578.399C478.531 571.682 480.927 563.786 480.927 555.708C480.927 544.875 476.624 534.487 468.964 526.827C461.304 519.167 450.916 514.864 440.083 514.864Z" fill="white" fill-opacity="0.3"/>
<path d="M440.083 714.49C432.005 714.49 424.109 716.885 417.392 721.373C410.675 725.861 405.44 732.24 402.349 739.703C399.258 747.166 398.449 755.378 400.025 763.301C401.601 771.224 405.491 778.502 411.203 784.214C416.915 789.926 424.192 793.816 432.115 795.392C440.038 796.968 448.25 796.159 455.714 793.067C463.177 789.976 469.555 784.741 474.043 778.024C478.531 771.308 480.927 763.411 480.927 755.333C480.927 744.501 476.624 734.112 468.964 726.453C461.304 718.793 450.916 714.49 440.083 714.49Z" fill="white" fill-opacity="0.3"/>
<path opacity="0.7" d="M539.948 115.62C531.87 115.62 523.973 118.015 517.256 122.503C510.54 126.991 505.305 133.37 502.213 140.833C499.122 148.296 498.313 156.508 499.889 164.431C501.465 172.354 505.355 179.632 511.067 185.344C516.779 191.056 524.057 194.946 531.98 196.522C539.902 198.098 548.115 197.289 555.578 194.197C563.041 191.106 569.42 185.871 573.908 179.154C578.396 172.438 580.791 164.541 580.791 156.463C580.791 145.631 576.488 135.242 568.828 127.582C561.169 119.923 550.78 115.62 539.948 115.62Z" fill="white" fill-opacity="0.3"/>
<path opacity="0.4" d="M539.948 315.245C531.87 315.245 523.973 317.64 517.256 322.128C510.54 326.616 505.305 332.995 502.213 340.458C499.122 347.922 498.313 356.134 499.889 364.057C501.465 371.979 505.355 379.257 511.067 384.969C516.779 390.681 524.057 394.571 531.98 396.147C539.902 397.723 548.115 396.914 555.578 393.823C563.041 390.731 569.42 385.496 573.908 378.78C578.396 372.063 580.791 364.166 580.791 356.088C580.791 345.256 576.488 334.867 568.828 327.208C561.169 319.548 550.78 315.245 539.948 315.245Z" fill="white" fill-opacity="0.3"/>
<path opacity="0.7" d="M539.948 415.005C531.87 415.005 523.973 417.4 517.256 421.888C510.54 426.376 505.305 432.755 502.213 440.218C499.122 447.681 498.313 455.894 499.889 463.816C501.465 471.739 505.355 479.017 511.067 484.729C516.779 490.441 524.057 494.331 531.98 495.907C539.902 497.483 548.115 496.674 555.578 493.583C563.041 490.491 569.42 485.256 573.908 478.54C578.396 471.823 580.791 463.926 580.791 455.848C580.791 445.016 576.488 434.627 568.828 426.968C561.169 419.308 550.78 415.005 539.948 415.005Z" fill="white" fill-opacity="0.3"/>
<path opacity="0.9" d="M539.948 514.864C531.87 514.864 523.973 517.26 517.256 521.748C510.54 526.236 505.305 532.614 502.213 540.078C499.122 547.541 498.313 555.753 499.889 563.676C501.465 571.599 505.355 578.876 511.067 584.588C516.779 590.3 524.057 594.19 531.98 595.766C539.902 597.342 548.115 596.533 555.578 593.442C563.041 590.351 569.42 585.116 573.908 578.399C578.396 571.682 580.791 563.786 580.791 555.708C580.791 544.875 576.488 534.487 568.828 526.827C561.169 519.167 550.78 514.864 539.948 514.864Z" fill="white" fill-opacity="0.3"/>
<path opacity="0.7" d="M539.948 614.625C531.87 614.625 523.973 617.02 517.256 621.508C510.54 625.996 505.305 632.375 502.213 639.838C499.122 647.301 498.313 655.513 499.889 663.436C501.465 671.359 505.355 678.636 511.067 684.348C516.779 690.06 524.057 693.951 531.98 695.526C539.902 697.102 548.115 696.294 555.578 693.202C563.041 690.111 569.42 684.876 573.908 678.159C578.396 671.443 580.791 663.546 580.791 655.468C580.791 644.635 576.488 634.247 568.828 626.587C561.169 618.928 550.78 614.625 539.948 614.625Z" fill="white" fill-opacity="0.3"/>
<path opacity="0.9" d="M639.812 15.7593C631.734 15.7593 623.837 18.1548 617.121 22.6427C610.404 27.1307 605.169 33.5094 602.078 40.9726C598.986 48.4357 598.178 56.648 599.754 64.5708C601.33 72.4936 605.219 79.7712 610.931 85.4832C616.643 91.1953 623.921 95.0854 631.844 96.6613C639.767 98.2373 647.979 97.4283 655.442 94.337C662.905 91.2457 669.284 86.0107 673.772 79.294C678.26 72.5774 680.655 64.6807 680.655 56.6026C680.655 45.7703 676.352 35.3816 668.693 27.722C661.033 20.0624 650.644 15.7593 639.812 15.7593Z" fill="white" fill-opacity="0.3"/>
<path opacity="0.7" d="M639.812 215.379C631.734 215.379 623.837 217.775 617.121 222.263C610.404 226.75 605.169 233.13 602.078 240.593C598.986 248.056 598.178 256.268 599.754 264.191C601.33 272.113 605.219 279.391 610.931 285.103C616.643 290.815 623.921 294.705 631.844 296.281C639.767 297.857 647.979 297.048 655.442 293.957C662.905 290.865 669.284 285.631 673.772 278.914C678.26 272.197 680.655 264.301 680.655 256.223C680.655 245.39 676.352 235.002 668.693 227.342C661.033 219.682 650.644 215.379 639.812 215.379Z" fill="white" fill-opacity="0.3"/>
<path opacity="0.9" d="M639.812 415.005C631.734 415.005 623.837 417.4 617.121 421.888C610.404 426.376 605.169 432.755 602.078 440.218C598.986 447.681 598.178 455.894 599.754 463.816C601.33 471.739 605.219 479.017 610.931 484.729C616.643 490.441 623.921 494.331 631.844 495.907C639.767 497.483 647.979 496.674 655.442 493.583C662.905 490.491 669.284 485.256 673.772 478.54C678.26 471.823 680.655 463.926 680.655 455.848C680.655 445.016 676.352 434.627 668.693 426.968C661.033 419.308 650.644 415.005 639.812 415.005Z" fill="white" fill-opacity="0.3"/>
<path opacity="0.5" d="M639.812 614.625C631.734 614.625 623.837 617.02 617.121 621.508C610.404 625.996 605.169 632.375 602.078 639.838C598.986 647.301 598.178 655.513 599.754 663.436C601.33 671.359 605.219 678.636 610.931 684.348C616.643 690.06 623.921 693.951 631.844 695.526C639.767 697.102 647.979 696.294 655.442 693.202C662.905 690.111 669.284 684.876 673.772 678.159C678.26 671.443 680.655 663.546 680.655 655.468C680.655 644.635 676.352 634.247 668.693 626.587C661.033 618.928 650.644 614.625 639.812 614.625Z" fill="white" fill-opacity="0.3"/>
<path opacity="0.7" d="M639.812 714.49C631.734 714.49 623.837 716.885 617.121 721.373C610.404 725.861 605.169 732.24 602.078 739.703C598.986 747.166 598.178 755.378 599.754 763.301C601.33 771.224 605.219 778.502 610.931 784.214C616.643 789.926 623.921 793.816 631.844 795.392C639.767 796.968 647.979 796.159 655.442 793.067C662.905 789.976 669.284 784.741 673.772 778.024C678.26 771.308 680.655 763.411 680.655 755.333C680.655 744.501 676.352 734.112 668.693 726.453C661.033 718.793 650.644 714.49 639.812 714.49Z" fill="white" fill-opacity="0.3"/>
<path opacity="0.9" d="M739.568 415.005C731.49 415.005 723.593 417.4 716.876 421.888C710.16 426.376 704.925 432.755 701.833 440.218C698.742 447.681 697.933 455.894 699.509 463.816C701.085 471.739 704.975 479.017 710.687 484.729C716.399 490.441 723.677 494.331 731.6 495.907C739.523 497.483 747.734 496.674 755.198 493.583C762.661 490.491 769.04 485.256 773.528 478.54C778.016 471.823 780.411 463.926 780.411 455.848C780.411 445.016 776.108 434.627 768.448 426.968C760.789 419.308 750.4 415.005 739.568 415.005Z" fill="white" fill-opacity="0.3"/>
<path d="M739.568 514.864C731.49 514.864 723.593 517.26 716.876 521.748C710.16 526.236 704.925 532.614 701.833 540.078C698.742 547.541 697.933 555.753 699.509 563.676C701.085 571.599 704.975 578.876 710.687 584.588C716.399 590.3 723.677 594.19 731.6 595.766C739.523 597.342 747.734 596.533 755.198 593.442C762.661 590.351 769.04 585.116 773.528 578.399C778.016 571.682 780.411 563.786 780.411 555.708C780.411 544.875 776.108 534.487 768.448 526.827C760.789 519.167 750.4 514.864 739.568 514.864Z" fill="white" fill-opacity="0.3"/>
<path d="M739.568 614.625C731.49 614.625 723.593 617.02 716.876 621.508C710.16 625.996 704.925 632.375 701.833 639.838C698.742 647.301 697.933 655.513 699.509 663.436C701.085 671.359 704.975 678.636 710.687 684.348C716.399 690.06 723.677 693.951 731.6 695.526C739.523 697.102 747.734 696.294 755.198 693.202C762.661 690.111 769.04 684.876 773.528 678.159C778.016 671.443 780.411 663.546 780.411 655.468C780.411 644.635 776.108 634.247 768.448 626.587C760.789 618.928 750.4 614.625 739.568 614.625Z" fill="white" fill-opacity="0.3"/>
<path d="M739.568 714.49C731.49 714.49 723.593 716.885 716.876 721.373C710.16 725.861 704.925 732.24 701.833 739.703C698.742 747.166 697.933 755.378 699.509 763.301C701.085 771.224 704.975 778.502 710.687 784.214C716.399 789.926 723.677 793.816 731.6 795.392C739.523 796.968 747.734 796.159 755.198 793.067C762.661 789.976 769.04 784.741 773.528 778.024C778.016 771.308 780.411 763.411 780.411 755.333C780.411 744.501 776.108 734.112 768.448 726.453C760.789 718.793 750.4 714.49 739.568 714.49Z" fill="white" fill-opacity="0.3"/>
</g>
</svg>
