<svg width="1022" height="522" viewBox="0 0 1022 522" fill="none" xmlns="http://www.w3.org/2000/svg">
<g opacity="0.37">
<path opacity="0.2" d="M40.8433 202.86C32.7653 202.86 24.8687 205.26 18.1521 209.757C11.4354 214.254 6.20042 220.645 3.10909 228.123C0.0177545 235.6 -0.791157 243.828 0.784791 251.767C2.36074 259.705 6.25082 266.997 11.9629 272.72C17.6749 278.443 24.9525 282.34 32.8753 283.92C40.7981 285.499 49.0102 284.688 56.4734 281.591C63.9365 278.493 70.3154 273.248 74.8033 266.518C79.2913 259.789 81.6866 251.877 81.6866 243.783C81.6866 232.93 77.3836 222.521 69.7239 214.846C62.0643 207.172 51.6756 202.86 40.8433 202.86Z" fill="white"/>
<path opacity="0.2" d="M40.8433 302.92C32.7653 302.92 24.8687 305.32 18.1521 309.816C11.4354 314.313 6.20042 320.705 3.10909 328.182C0.0177545 335.66 -0.791157 343.888 0.784791 351.826C2.36074 359.765 6.25082 367.056 11.9629 372.78C17.6749 378.503 24.9525 382.4 32.8753 383.979C40.7981 385.558 49.0102 384.748 56.4734 381.65C63.9365 378.553 70.3154 373.308 74.8033 366.578C79.2913 359.848 81.6866 351.936 81.6866 343.843C81.6866 332.989 77.3836 322.58 69.7239 314.906C62.0643 307.231 51.6756 302.92 40.8433 302.92Z" fill="white"/>
<path opacity="0.2" d="M140.708 2.85156C132.63 2.85156 124.733 5.25176 118.016 9.74842C111.3 14.2451 106.065 20.6362 102.973 28.1139C99.8821 35.5916 99.0734 43.8198 100.649 51.758C102.225 59.6963 106.115 66.988 111.827 72.7112C117.539 78.4343 124.817 82.332 132.74 83.911C140.663 85.49 148.875 84.6795 156.338 81.5822C163.801 78.4848 170.18 73.2397 174.668 66.5099C179.156 59.7802 181.551 51.8681 181.551 43.7744C181.551 32.921 177.248 22.5121 169.589 14.8375C161.929 7.16303 151.54 2.85156 140.708 2.85156Z" fill="white"/>
<path opacity="0.2" d="M140.708 202.86C132.63 202.86 124.733 205.26 118.016 209.757C111.3 214.254 106.065 220.645 102.973 228.123C99.8821 235.6 99.0734 243.828 100.649 251.767C102.225 259.705 106.115 266.997 111.827 272.72C117.539 278.443 124.817 282.34 132.74 283.92C140.663 285.499 148.875 284.688 156.338 281.591C163.801 278.493 170.18 273.248 174.668 266.518C179.156 259.789 181.551 251.877 181.551 243.783C181.551 232.93 177.248 222.521 169.589 214.846C161.929 207.172 151.54 202.86 140.708 202.86Z" fill="white"/>
<path opacity="0.5" d="M140.708 402.874C132.63 402.874 124.733 405.274 118.016 409.771C111.3 414.268 106.065 420.659 102.973 428.136C99.8821 435.614 99.0734 443.842 100.649 451.781C102.225 459.719 106.115 467.01 111.827 472.734C117.539 478.457 124.817 482.354 132.74 483.933C140.663 485.512 148.875 484.702 156.338 481.605C163.801 478.507 170.18 473.262 174.668 466.532C179.156 459.803 181.551 451.891 181.551 443.797C181.551 432.943 177.248 422.535 169.589 414.86C161.929 407.185 151.54 402.874 140.708 402.874Z" fill="white"/>
<path opacity="0.4" d="M240.463 202.86C232.385 202.86 224.489 205.26 217.772 209.757C211.055 214.254 205.82 220.645 202.729 228.123C199.638 235.6 198.829 243.828 200.405 251.767C201.981 259.705 205.871 266.997 211.583 272.72C217.295 278.443 224.572 282.34 232.495 283.92C240.418 285.499 248.63 284.688 256.093 281.591C263.557 278.493 269.935 273.248 274.423 266.518C278.911 259.789 281.307 251.877 281.307 243.783C281.307 232.93 277.003 222.521 269.344 214.846C261.684 207.172 251.296 202.86 240.463 202.86Z" fill="white"/>
<path opacity="0.7" d="M240.463 402.874C232.385 402.874 224.489 405.274 217.772 409.771C211.055 414.268 205.82 420.659 202.729 428.136C199.638 435.614 198.829 443.842 200.405 451.781C201.981 459.719 205.871 467.01 211.583 472.734C217.295 478.457 224.572 482.354 232.495 483.933C240.418 485.512 248.63 484.702 256.093 481.605C263.557 478.507 269.935 473.262 274.423 466.532C278.911 459.803 281.307 451.891 281.307 443.797C281.307 432.943 277.003 422.535 269.344 414.86C261.684 407.185 251.296 402.874 240.463 402.874Z" fill="white"/>
<path opacity="0.5" d="M240.463 502.928C232.385 502.928 224.489 505.328 217.772 509.825C211.055 514.321 205.82 520.712 202.729 528.19C199.638 535.668 198.829 543.896 200.405 551.834C201.981 559.772 205.871 567.064 211.583 572.787C217.295 578.511 224.572 582.408 232.495 583.987C240.418 585.566 248.63 584.756 256.093 581.658C263.557 578.561 269.935 573.316 274.423 566.586C278.911 559.856 281.307 551.944 281.307 543.851C281.307 532.997 277.003 522.588 269.344 514.914C261.684 507.239 251.296 502.928 240.463 502.928Z" fill="white"/>
<path opacity="0.1" d="M340.328 202.86C332.25 202.86 324.353 205.26 317.636 209.757C310.92 214.254 305.685 220.645 302.593 228.123C299.502 235.6 298.693 243.828 300.269 251.767C301.845 259.705 305.735 266.997 311.447 272.72C317.159 278.443 324.437 282.34 332.36 283.92C340.283 285.499 348.495 284.688 355.958 281.591C363.421 278.493 369.8 273.248 374.288 266.518C378.776 259.789 381.171 251.877 381.171 243.783C381.171 232.93 376.868 222.521 369.209 214.846C361.549 207.172 351.16 202.86 340.328 202.86Z" fill="white"/>
<path opacity="0.5" d="M340.328 502.928C332.25 502.928 324.353 505.328 317.636 509.825C310.92 514.321 305.685 520.712 302.593 528.19C299.502 535.668 298.693 543.896 300.269 551.834C301.845 559.772 305.735 567.064 311.447 572.787C317.159 578.511 324.437 582.408 332.36 583.987C340.283 585.566 348.495 584.756 355.958 581.658C363.421 578.561 369.8 573.316 374.288 566.586C378.776 559.856 381.171 551.944 381.171 543.851C381.171 532.997 376.868 522.588 369.209 514.914C361.549 507.239 351.16 502.928 340.328 502.928Z" fill="white"/>
<path opacity="0.9" d="M440.083 202.86C432.005 202.86 424.109 205.26 417.392 209.757C410.675 214.254 405.44 220.645 402.349 228.123C399.258 235.6 398.449 243.828 400.025 251.767C401.601 259.705 405.491 266.997 411.203 272.72C416.915 278.443 424.192 282.34 432.115 283.92C440.038 285.499 448.25 284.688 455.713 281.591C463.177 278.493 469.555 273.248 474.043 266.518C478.531 259.789 480.927 251.877 480.927 243.783C480.927 232.93 476.624 222.521 468.964 214.846C461.304 207.172 450.916 202.86 440.083 202.86Z" fill="white"/>
<path opacity="0.7" d="M440.083 302.92C432.005 302.92 424.109 305.32 417.392 309.816C410.675 314.313 405.44 320.705 402.349 328.182C399.258 335.66 398.449 343.888 400.025 351.826C401.601 359.765 405.491 367.056 411.203 372.78C416.915 378.503 424.192 382.4 432.115 383.979C440.038 385.558 448.25 384.748 455.713 381.65C463.177 378.553 469.555 373.308 474.043 366.578C478.531 359.848 480.927 351.936 480.927 343.843C480.927 332.989 476.624 322.58 468.964 314.906C461.304 307.231 450.916 302.92 440.083 302.92Z" fill="white"/>
<path opacity="0.5" d="M440.083 502.928C432.005 502.928 424.109 505.328 417.392 509.825C410.675 514.321 405.44 520.712 402.349 528.19C399.258 535.668 398.449 543.896 400.025 551.834C401.601 559.772 405.491 567.064 411.203 572.787C416.915 578.511 424.192 582.408 432.115 583.987C440.038 585.566 448.25 584.756 455.713 581.658C463.177 578.561 469.555 573.316 474.043 566.586C478.531 559.856 480.927 551.944 480.927 543.851C480.927 532.997 476.624 522.588 468.964 514.914C461.304 507.239 450.916 502.928 440.083 502.928Z" fill="white"/>
<path opacity="0.4" d="M539.948 302.92C531.87 302.92 523.973 305.32 517.256 309.816C510.54 314.313 505.305 320.705 502.213 328.182C499.122 335.66 498.313 343.888 499.889 351.826C501.465 359.765 505.355 367.056 511.067 372.78C516.779 378.503 524.057 382.4 531.98 383.979C539.902 385.558 548.115 384.748 555.578 381.65C563.041 378.553 569.42 373.308 573.908 366.578C578.395 359.848 580.791 351.936 580.791 343.843C580.791 332.989 576.488 322.58 568.828 314.906C561.169 307.231 550.78 302.92 539.948 302.92Z" fill="white"/>
<path opacity="0.7" d="M539.948 402.874C531.87 402.874 523.973 405.274 517.256 409.771C510.54 414.268 505.305 420.659 502.213 428.136C499.122 435.614 498.313 443.842 499.889 451.781C501.465 459.719 505.355 467.01 511.067 472.734C516.779 478.457 524.057 482.354 531.98 483.933C539.902 485.512 548.115 484.702 555.578 481.605C563.041 478.507 569.42 473.262 573.908 466.532C578.395 459.803 580.791 451.891 580.791 443.797C580.791 432.943 576.488 422.535 568.828 414.86C561.169 407.185 550.78 402.874 539.948 402.874Z" fill="white"/>
<path opacity="0.9" d="M539.948 502.928C531.87 502.928 523.973 505.328 517.256 509.825C510.54 514.321 505.305 520.712 502.213 528.19C499.122 535.668 498.313 543.896 499.889 551.834C501.465 559.772 505.355 567.064 511.067 572.787C516.779 578.511 524.057 582.408 531.98 583.987C539.902 585.566 548.115 584.756 555.578 581.658C563.041 578.561 569.42 573.316 573.908 566.586C578.395 559.856 580.791 551.944 580.791 543.851C580.791 532.997 576.488 522.588 568.828 514.914C561.169 507.239 550.78 502.928 539.948 502.928Z" fill="white"/>
<path opacity="0.7" d="M639.812 202.86C631.734 202.86 623.837 205.26 617.121 209.757C610.404 214.254 605.169 220.645 602.078 228.123C598.986 235.6 598.178 243.828 599.754 251.767C601.33 259.705 605.219 266.997 610.931 272.72C616.643 278.443 623.921 282.34 631.844 283.92C639.767 285.499 647.979 284.688 655.442 281.591C662.905 278.493 669.284 273.248 673.772 266.518C678.26 259.789 680.655 251.877 680.655 243.783C680.655 232.93 676.352 222.521 668.693 214.846C661.033 207.172 650.644 202.86 639.812 202.86Z" fill="white"/>
<path opacity="0.9" d="M639.812 402.874C631.734 402.874 623.837 405.274 617.121 409.771C610.404 414.268 605.169 420.659 602.078 428.136C598.986 435.614 598.178 443.842 599.754 451.781C601.33 459.719 605.219 467.01 610.931 472.734C616.643 478.457 623.921 482.354 631.844 483.933C639.767 485.512 647.979 484.702 655.442 481.605C662.905 478.507 669.284 473.262 673.772 466.532C678.26 459.803 680.655 451.891 680.655 443.797C680.655 432.943 676.352 422.535 668.693 414.86C661.033 407.185 650.644 402.874 639.812 402.874Z" fill="white"/>
<path opacity="0.9" d="M739.568 402.874C731.49 402.874 723.593 405.274 716.876 409.771C710.16 414.268 704.925 420.659 701.833 428.136C698.742 435.614 697.933 443.842 699.509 451.781C701.085 459.719 704.975 467.01 710.687 472.734C716.399 478.457 723.677 482.354 731.6 483.933C739.523 485.512 747.734 484.702 755.198 481.605C762.661 478.507 769.04 473.262 773.528 466.532C778.016 459.803 780.411 451.891 780.411 443.797C780.411 432.943 776.108 422.535 768.448 414.86C760.789 407.185 750.4 402.874 739.568 402.874Z" fill="white"/>
<path d="M739.568 502.928C731.49 502.928 723.593 505.328 716.876 509.825C710.16 514.321 704.925 520.712 701.833 528.19C698.742 535.668 697.933 543.896 699.509 551.834C701.085 559.772 704.975 567.064 710.687 572.787C716.399 578.511 723.677 582.408 731.6 583.987C739.523 585.566 747.734 584.756 755.198 581.658C762.661 578.561 769.04 573.316 773.528 566.586C778.016 559.856 780.411 551.944 780.411 543.851C780.411 532.997 776.108 522.588 768.448 514.914C760.789 507.239 750.4 502.928 739.568 502.928Z" fill="white"/>
<path opacity="0.9" d="M839.432 202.86C831.354 202.86 823.458 205.26 816.741 209.757C810.024 214.254 804.789 220.645 801.698 228.123C798.607 235.6 797.798 243.828 799.374 251.767C800.95 259.705 804.84 266.997 810.552 272.72C816.264 278.443 823.541 282.34 831.464 283.92C839.387 285.499 847.599 284.688 855.062 281.591C862.526 278.493 868.904 273.248 873.392 266.518C877.88 259.789 880.275 251.877 880.275 243.783C880.275 232.93 875.972 222.521 868.313 214.846C860.653 207.172 850.264 202.86 839.432 202.86Z" fill="white"/>
<path d="M839.432 302.92C831.354 302.92 823.458 305.32 816.741 309.816C810.024 314.313 804.789 320.705 801.698 328.182C798.607 335.66 797.798 343.888 799.374 351.826C800.95 359.765 804.84 367.056 810.552 372.78C816.264 378.503 823.541 382.4 831.464 383.979C839.387 385.558 847.599 384.748 855.062 381.65C862.526 378.553 868.904 373.308 873.392 366.578C877.88 359.848 880.275 351.936 880.275 343.843C880.275 332.989 875.972 322.58 868.313 314.906C860.653 307.231 850.264 302.92 839.432 302.92Z" fill="white"/>
<path d="M839.432 402.874C831.354 402.874 823.458 405.274 816.741 409.771C810.024 414.268 804.789 420.659 801.698 428.136C798.607 435.614 797.798 443.842 799.374 451.781C800.95 459.719 804.84 467.01 810.552 472.734C816.264 478.457 823.541 482.354 831.464 483.933C839.387 485.512 847.599 484.702 855.062 481.605C862.526 478.507 868.904 473.262 873.392 466.532C877.88 459.803 880.275 451.891 880.275 443.797C880.275 432.943 875.972 422.535 868.313 414.86C860.653 407.185 850.264 402.874 839.432 402.874Z" fill="white"/>
<path d="M839.432 502.928C831.354 502.928 823.458 505.328 816.741 509.825C810.024 514.321 804.789 520.712 801.698 528.19C798.607 535.668 797.798 543.896 799.374 551.834C800.95 559.772 804.84 567.064 810.552 572.787C816.264 578.511 823.541 582.408 831.464 583.987C839.387 585.566 847.599 584.756 855.062 581.658C862.526 578.561 868.904 573.316 873.392 566.586C877.88 559.856 880.275 551.944 880.275 543.851C880.275 532.997 875.972 522.588 868.313 514.914C860.653 507.239 850.264 502.928 839.432 502.928Z" fill="white"/>
<path d="M939.188 202.86C931.11 202.86 923.213 205.26 916.496 209.757C909.78 214.254 904.545 220.645 901.453 228.123C898.362 235.6 897.553 243.828 899.129 251.767C900.705 259.705 904.595 266.997 910.307 272.72C916.019 278.443 923.297 282.34 931.22 283.92C939.142 285.499 947.355 284.688 954.818 281.591C962.281 278.493 968.66 273.248 973.148 266.518C977.635 259.789 980.031 251.877 980.031 243.783C980.031 232.93 975.728 222.521 968.068 214.846C960.409 207.172 950.02 202.86 939.188 202.86Z" fill="white"/>
<path d="M939.188 302.92C931.11 302.92 923.213 305.32 916.496 309.816C909.78 314.313 904.545 320.705 901.453 328.182C898.362 335.66 897.553 343.888 899.129 351.826C900.705 359.765 904.595 367.056 910.307 372.78C916.019 378.503 923.297 382.4 931.22 383.979C939.142 385.558 947.355 384.748 954.818 381.65C962.281 378.553 968.66 373.308 973.148 366.578C977.635 359.848 980.031 351.936 980.031 343.843C980.031 332.989 975.728 322.58 968.068 314.906C960.409 307.231 950.02 302.92 939.188 302.92Z" fill="white"/>
<path d="M939.188 402.874C931.11 402.874 923.213 405.274 916.496 409.771C909.78 414.268 904.545 420.659 901.453 428.136C898.362 435.614 897.553 443.842 899.129 451.781C900.705 459.719 904.595 467.01 910.307 472.734C916.019 478.457 923.297 482.354 931.22 483.933C939.142 485.512 947.355 484.702 954.818 481.605C962.281 478.507 968.66 473.262 973.148 466.532C977.635 459.803 980.031 451.891 980.031 443.797C980.031 432.943 975.728 422.535 968.068 414.86C960.409 407.185 950.02 402.874 939.188 402.874Z" fill="white"/>
<path d="M939.188 502.928C931.11 502.928 923.213 505.328 916.496 509.825C909.78 514.321 904.545 520.712 901.453 528.19C898.362 535.668 897.553 543.896 899.129 551.834C900.705 559.772 904.595 567.064 910.307 572.787C916.019 578.511 923.297 582.408 931.22 583.987C939.142 585.566 947.355 584.756 954.818 581.658C962.281 578.561 968.66 573.316 973.148 566.586C977.635 559.856 980.031 551.944 980.031 543.851C980.031 532.997 975.728 522.588 968.068 514.914C960.409 507.239 950.02 502.928 939.188 502.928Z" fill="white"/>
<path d="M1039.05 202.86C1030.97 202.86 1023.08 205.26 1016.36 209.757C1009.64 214.254 1004.41 220.645 1001.32 228.123C998.227 235.6 997.418 243.828 998.994 251.767C1000.57 259.705 1004.46 266.997 1010.17 272.72C1015.88 278.443 1023.16 282.34 1031.08 283.92C1039.01 285.499 1047.22 284.688 1054.68 281.591C1062.15 278.493 1068.52 273.248 1073.01 266.518C1077.5 259.789 1079.9 251.877 1079.9 243.783C1079.9 232.93 1075.59 222.521 1067.93 214.846C1060.27 207.172 1049.88 202.86 1039.05 202.86Z" fill="white"/>
<path opacity="0.5" d="M1039.05 302.92C1030.97 302.92 1023.08 305.32 1016.36 309.816C1009.64 314.313 1004.41 320.705 1001.32 328.182C998.227 335.66 997.418 343.888 998.994 351.826C1000.57 359.765 1004.46 367.056 1010.17 372.78C1015.88 378.503 1023.16 382.4 1031.08 383.979C1039.01 385.558 1047.22 384.748 1054.68 381.65C1062.15 378.553 1068.52 373.308 1073.01 366.578C1077.5 359.848 1079.9 351.936 1079.9 343.843C1079.9 332.989 1075.59 322.58 1067.93 314.906C1060.27 307.231 1049.88 302.92 1039.05 302.92Z" fill="white"/>
</g>
</svg>
